<?xml version="1.0" encoding="UTF-8"?>
<svg version="1.1" xmlns="http://www.w3.org/2000/svg" width="969" height="257">
<path d="M0 0 C2.55318662 1.84560603 4.59862465 3.86827695 6.69140625 6.22265625 C7.02140625 3.58265625 7.35140625 0.94265625 7.69140625 -1.77734375 C10.50396906 -1.80418687 13.31627866 -1.82410563 16.12890625 -1.83984375 C16.93134766 -1.84822266 17.73378906 -1.85660156 18.56054688 -1.86523438 C20.60435846 -1.87385805 22.64824527 -1.82962525 24.69140625 -1.77734375 C26.56793263 0.09918263 25.829048 3.30387207 25.83666992 5.80273438 C25.84002853 6.49068085 25.84338715 7.17862732 25.84684753 7.88742065 C25.85639328 10.17626729 25.85830319 12.46504091 25.859375 14.75390625 C25.86258773 16.34517446 25.86595181 17.93644238 25.86946106 19.52770996 C25.87546322 22.87362349 25.87730011 26.21951116 25.87670898 29.56542969 C25.8766079 33.83448352 25.89019885 38.103369 25.90748119 42.37238312 C25.91865779 45.66512803 25.92062638 48.95783317 25.92009926 52.25059509 C25.92127322 53.82291742 25.92566192 55.39524098 25.93343163 56.96754456 C26.02936484 78.4077309 26.02936484 78.4077309 20.3671875 85.58984375 C12.57825863 93.1790565 2.87309515 95.61966771 -7.68359375 95.53515625 C-8.42673828 95.5295166 -9.16988281 95.52387695 -9.93554688 95.51806641 C-19.68232483 95.30350133 -27.86099189 92.74687658 -35.30859375 86.22265625 C-37.19372178 83.88608967 -38.13700074 82.04513032 -39.30859375 79.22265625 C-38.97859375 78.23265625 -38.64859375 77.24265625 -38.30859375 76.22265625 C-35.69140625 75.2734375 -35.69140625 75.2734375 -32.43359375 74.53515625 C-31.36367188 74.28378906 -30.29375 74.03242188 -29.19140625 73.7734375 C-26.30859375 73.22265625 -26.30859375 73.22265625 -23.30859375 73.22265625 C-22.47328125 74.36734375 -22.47328125 74.36734375 -21.62109375 75.53515625 C-17.83450976 79.93578089 -13.46652675 80.99144914 -7.80859375 81.59765625 C-2.63015486 81.04282351 2.02080535 80.28344285 5.4140625 76.09765625 C7.02251202 72.47741512 7.02359499 69.28707241 6.87890625 65.41015625 C6.86537109 64.71728516 6.85183594 64.02441406 6.83789062 63.31054688 C6.8027947 61.6142436 6.74899568 59.91834489 6.69140625 58.22265625 C5.82515625 59.38861328 5.82515625 59.38861328 4.94140625 60.578125 C1.08153534 65.11481355 -3.40317235 66.87904531 -9.28125 67.57421875 C-18.25595986 67.82383141 -25.253399 65.89748681 -32.30859375 60.22265625 C-40.66542594 51.41631231 -41.7686332 41.88034195 -41.66015625 30.19873047 C-41.37629988 20.24995878 -39.3184419 12.56330623 -32.30859375 5.22265625 C-23.30904005 -2.86077522 -11.10524124 -6.4683973 0 0 Z M-19.30859375 16.22265625 C-24.40354861 23.34601007 -24.21909829 31.80959432 -23.30859375 40.22265625 C-22.12372844 44.64776545 -20.55380726 47.97744274 -17.30859375 51.22265625 C-12.83069258 53.46160684 -8.27888686 53.76829721 -3.30859375 53.22265625 C0.83283456 51.43431221 3.18374207 48.94091692 5.69140625 45.22265625 C8.60071153 37.85587965 9.03996844 29.30202394 6.50390625 21.72265625 C4.33856115 17.54130019 1.9649495 14.35942787 -2.30859375 12.22265625 C-8.88575375 11.56708965 -14.38933324 11.30339574 -19.30859375 16.22265625 Z " fill="#F7DB8E" transform="translate(582.30859375,106.77734375)"/>
<path d="M0 0 C2.5625 2.75 2.5625 2.75 4 5 C4.144375 4.236875 4.28875 3.47375 4.4375 2.6875 C5 0 5 0 6 -3 C11.61 -3 17.22 -3 23 -3 C23.06794957 6.7537247 23.12291604 16.50729055 23.15543652 26.261199 C23.17104973 30.79100319 23.19220805 35.32063613 23.22631836 39.8503418 C23.25906753 44.22700227 23.27688564 48.60349868 23.28463173 52.98027229 C23.29014744 54.64472089 23.30091792 56.30916116 23.31719017 57.97353935 C23.50148431 77.61635879 23.50148431 77.61635879 17.984375 84.5234375 C6.50734128 94.03412628 -4.52263835 94.89838833 -19 94 C-26.84328757 92.84166717 -33.12146683 89.32728907 -38.41796875 83.41796875 C-39.5625 81.875 -39.5625 81.875 -41 79 C-40.58984375 76.8203125 -40.58984375 76.8203125 -40 75 C-38.0636296 74.49564306 -36.12585854 73.99666126 -34.1875 73.5 C-33.10855469 73.2215625 -32.02960937 72.943125 -30.91796875 72.65625 C-28 72 -28 72 -25 72 C-24.608125 72.763125 -24.21625 73.52625 -23.8125 74.3125 C-21.25122983 78.11024543 -18.36171535 78.96802299 -14 80 C-7.8169087 80.54237643 -2.80694941 78.9356498 3 77 C3.36247871 74.39674384 3.71527655 71.79279598 4.0625 69.1875 C4.16626953 68.44951172 4.27003906 67.71152344 4.37695312 66.95117188 C4.82086566 63.56825221 5.09314992 61.27944975 4 58 C3.34644531 58.61488281 3.34644531 58.61488281 2.6796875 59.2421875 C-3.82911746 65.13110628 -9.14441069 66.49308552 -17.90234375 66.30859375 C-25.50814454 65.55089102 -31.41206591 62.57144962 -36.53515625 56.91796875 C-44.41390408 46.60206159 -45.24254933 34.30782408 -43.5703125 21.78125 C-41.82543231 13.42305848 -38.38460372 6.31206219 -31.4609375 1.08203125 C-21.52087298 -5.09019171 -10.259841 -6.66251086 0 0 Z M-21.6640625 15.11328125 C-26.4515361 21.87453783 -26.96297176 29.95383598 -26 38 C-24.41555328 43.72445268 -22.17476473 47.81552939 -17 51 C-11.98972375 52.67009208 -7.66956683 52.57792698 -2.75 50.875 C1.80692915 47.76800285 3.89686084 44.05317742 5.3125 38.8125 C6.74291162 31.15786485 6.10335922 23.45540824 2.140625 16.66015625 C0.23287757 13.88346907 -0.92711179 12.53644411 -4 11 C-10.82404307 9.89182207 -16.68980336 9.90850766 -21.6640625 15.11328125 Z " fill="#F6DA8C" transform="translate(664,108)"/>
<path d="M0 0 C8.85563855 5.19223107 14.40839941 13.09093892 17 23 C18.00914208 33.06784792 18.46094347 44.15361182 13 53 C12.57589844 53.7115625 12.15179688 54.423125 11.71484375 55.15625 C7.2778811 61.7807959 0.62508487 66.63062334 -7 69 C-17.76716629 70.22842273 -28.13479566 69.81661761 -37.19921875 63.45703125 C-43.62694276 58.26495105 -47.89621983 52.00912802 -50 44 C-51.26269153 31.0344158 -51.21790442 18.14690412 -42.75 7.625 C-31.76361449 -3.85541998 -14.49015197 -6.97120713 0 0 Z M-28.1875 16.0625 C-32.65048264 23.29560979 -34.10406871 31.17603757 -32.53125 39.47265625 C-31.03083495 45.39393708 -28.70504524 49.99335991 -24 54 C-19.04662639 55.65112454 -14.0360638 55.85967138 -9.1875 53.8125 C-4.70904967 50.10178401 -2.53024839 46.58245121 -1 41 C-0.22717123 32.32814231 0.16841032 23.43705247 -5 16 C-7.96613611 12.5104281 -10.53542797 11.70268139 -14.9375 11.0625 C-20.67960549 10.71268377 -23.98845706 12.10340237 -28.1875 16.0625 Z " fill="#FDFDFD" transform="translate(403,107)"/>
<path d="M0 0 C5.00277296 3.97924112 7.77519523 8.36715455 9.05859375 14.67578125 C9.14386122 16.41661814 9.17634953 18.16040157 9.17211914 19.90332031 C9.17204361 20.94409729 9.17196808 21.98487427 9.17189026 23.05718994 C9.16672897 24.17398132 9.16156769 25.29077271 9.15625 26.44140625 C9.15483505 27.5899408 9.1534201 28.73847534 9.15196228 29.92181396 C9.14636518 33.58982956 9.13381319 37.2577841 9.12109375 40.92578125 C9.11607838 43.41275954 9.11151553 45.89973878 9.10742188 48.38671875 C9.0963967 54.48309644 9.07913402 60.57942849 9.05859375 66.67578125 C3.11859375 66.67578125 -2.82140625 66.67578125 -8.94140625 66.67578125 C-8.91784058 64.79258179 -8.91784058 64.79258179 -8.89379883 62.87133789 C-8.83919494 58.18048607 -8.80494594 53.48966194 -8.77661133 48.79858398 C-8.7615938 46.77444726 -8.74117364 44.7503427 -8.71508789 42.72631836 C-8.67839358 39.80444364 -8.66160917 36.8830019 -8.6484375 33.9609375 C-8.63295364 33.06681656 -8.61746979 32.17269562 -8.60151672 31.2514801 C-8.59995676 25.32942508 -9.39261232 20.07690221 -11.94140625 14.67578125 C-14.85927321 11.84373391 -17.44563958 11.46303935 -21.37890625 11.23828125 C-25.87584232 11.39567401 -28.51549239 12.66766176 -31.94140625 15.67578125 C-33.78828753 18.66031134 -34.20405608 20.96007045 -34.26025391 24.44433594 C-34.2801236 25.38500916 -34.29999329 26.32568237 -34.32046509 27.29486084 C-34.3377919 28.80599457 -34.3377919 28.80599457 -34.35546875 30.34765625 C-34.3748349 31.38521057 -34.39420105 32.42276489 -34.41415405 33.49176025 C-34.47389467 36.80301717 -34.52031355 40.11430896 -34.56640625 43.42578125 C-34.60459107 45.67189009 -34.6436431 47.91798437 -34.68359375 50.1640625 C-34.77959186 55.66785035 -34.86364365 61.17170676 -34.94140625 66.67578125 C-40.88140625 66.67578125 -46.82140625 66.67578125 -52.94140625 66.67578125 C-52.94140625 43.57578125 -52.94140625 20.47578125 -52.94140625 -3.32421875 C-47.33140625 -3.32421875 -41.72140625 -3.32421875 -35.94140625 -3.32421875 C-35.61140625 -0.68421875 -35.28140625 1.95578125 -34.94140625 4.67578125 C-34.43351562 4.19367188 -33.925625 3.7115625 -33.40234375 3.21484375 C-23.80377843 -5.59282855 -11.20876977 -7.64541841 0 0 Z " fill="#FEFEFE" transform="translate(518.94140625,108.32421875)"/>
<path d="M0 0 C24.75 0 49.5 0 75 0 C75 4.95 75 9.9 75 15 C65.76 15 56.52 15 47 15 C47 40.74 47 66.48 47 93 C41.06 93 35.12 93 29 93 C29 67.26 29 41.52 29 15 C19.43 15 9.86 15 0 15 C0 10.05 0 5.1 0 0 Z " fill="#FEFEFE" transform="translate(278,82)"/>
<path d="M0 0 C5.94 0 11.88 0 18 0 C18 23.1 18 46.2 18 70 C11.73 70 5.46 70 -1 70 C-0.67 46.9 -0.34 23.8 0 0 Z " fill="#FEFEFE" transform="translate(433,105)"/>
<path d="M0 0 C3.18915605 2.91773852 4.77713832 4.78664194 5.5625 9.0625 C4.87020639 12.67781108 3.54408967 14.38108416 1 17 C-2.24259821 18.6212991 -5.49561875 18.55810516 -9 18 C-11.92584944 16.6845971 -12.83752812 15.59496626 -15 13 C-15.7992416 10.14802999 -15.78424784 7.85443147 -15 5 C-10.55497029 -0.64638909 -6.93597341 -1.79378623 0 0 Z " fill="#FDFDFD" transform="translate(447,78)"/>
<path d="M0 0 C0.33 0 0.66 0 1 0 C1.97169033 5.7907491 2.38283909 10.44004212 0 16 C-2.125 17.4375 -2.125 17.4375 -4 18 C-4 18.66 -4 19.32 -4 20 C-8.35297645 22.44851109 -12.04273188 22.36713692 -16.9375 22.375 C-17.73607422 22.39949219 -18.53464844 22.42398438 -19.35742188 22.44921875 C-23.42545837 22.46944097 -25.48529257 22.32528974 -29.00390625 20.1015625 C-31 18 -31 18 -32 16 C-33.45947705 16.06006078 -34.91779272 16.1488689 -36.375 16.25 C-37.18710937 16.29640625 -37.99921875 16.3428125 -38.8359375 16.390625 C-41.18838927 16.7922092 -41.18838927 16.7922092 -42.2890625 19.046875 C-42.52367187 19.69140625 -42.75828125 20.3359375 -43 21 C-39.52263974 24.78034623 -39.52263974 24.78034623 -35 27 C-35 27.66 -35 28.32 -35 29 C-19.28767427 32.7289621 -7.00229029 32.17412692 8 26 C8 25.34 8 24.68 8 24 C8.66 24 9.32 24 10 24 C11.23921302 21.02588876 12.30058404 18.14737182 13 15 C13.99 15 14.98 15 16 15 C14.72967745 21.85974175 10.48958097 26.08048437 5 30 C-5.04524711 35.53557234 -19.66201839 35.78249902 -30.625 32.875 C-37.69559791 30.27838387 -43.61066379 25.77867241 -47 19 C-46.58984375 16.8203125 -46.58984375 16.8203125 -46 15 C-44.0636296 14.49564306 -42.12585854 13.99666126 -40.1875 13.5 C-39.10855469 13.2215625 -38.02960937 12.943125 -36.91796875 12.65625 C-34 12 -34 12 -31 12 C-30.608125 12.763125 -30.21625 13.52625 -29.8125 14.3125 C-27.25122983 18.11024543 -24.36171535 18.96802299 -20 20 C-13.8169087 20.54237643 -8.80694941 18.9356498 -3 17 C-2.86722656 15.85660156 -2.73445312 14.71320313 -2.59765625 13.53515625 C-2.4194969 12.0442438 -2.24109918 10.55335982 -2.0625 9.0625 C-1.97548828 8.30775391 -1.88847656 7.55300781 -1.79882812 6.77539062 C-1.11328125 1.11328125 -1.11328125 1.11328125 0 0 Z " fill="#F2DEA6" transform="translate(670,168)"/>
<path d="M0 0 C4.50289035 1.25662056 7.5433334 2.83961911 11 6 C11.33 6.66 11.66 7.32 12 8 C12.144375 7.236875 12.28875 6.47375 12.4375 5.6875 C13 3 13 3 14 0 C19.61 0 25.22 0 31 0 C31 25.08 31 50.16 31 76 C30.01 76.495 30.01 76.495 29 77 C29 52.25 29 27.5 29 2 C27.35 2.33 25.7 2.66 24 3 C22.56371543 3.06266512 21.1249445 3.08686347 19.6875 3.0625 C17.8621875 3.0315625 17.8621875 3.0315625 16 3 C15.45627049 6.05847848 15 8.88772805 15 12 C14.67 12.99 14.34 13.98 14 15 C13.34 14.67 12.68 14.34 12 14 C12 13.01 12 12.02 12 11 C11.34 11 10.68 11 10 11 C9.938125 10.21625 9.87625 9.4325 9.8125 8.625 C9.544375 7.75875 9.27625 6.8925 9 6 C6.6859613 4.72412505 6.6859613 4.72412505 4 4 C2.65949948 3.34786461 1.32338632 2.68620031 0 2 C0 1.34 0 0.68 0 0 Z " fill="#F8E7B2" transform="translate(656,105)"/>
<path d="M0 0 C0.33 0.99 0.66 1.98 1 3 C4.00847418 4.22520264 4.00847418 4.22520264 7 5 C7.12375 5.804375 7.2475 6.60875 7.375 7.4375 C7.58125 8.283125 7.7875 9.12875 8 10 C8.66 10.33 9.32 10.66 10 11 C12.87576011 20.26633814 12.71669464 29.39913555 8.42578125 38.11328125 C5.098295 42.51650278 2.50181524 44.71538179 -2.875 45.734375 C-4.24937913 45.77601786 -5.62532627 45.78040175 -7 45.75 C-7.71043457 45.74186279 -8.42086914 45.73372559 -9.15283203 45.7253418 C-12.28402276 45.57027123 -14.60838465 45.23828799 -17.3046875 43.59765625 C-18.90635337 41.77685698 -19.97289008 40.19428028 -21 38 C-21.37125 37.2471875 -21.7425 36.494375 -22.125 35.71875 C-23.23414849 32.27246718 -23.19252547 29.30011241 -23.125 25.6875 C-23.10695313 24.43324219 -23.08890625 23.17898437 -23.0703125 21.88671875 C-23.03550781 20.45779297 -23.03550781 20.45779297 -23 19 C-22.67 19 -22.34 19 -22 19 C-21.97421875 19.68964844 -21.9484375 20.37929687 -21.921875 21.08984375 C-21.47532287 28.48840062 -20.472574 35.63265551 -14.9375 41 C-9.59360457 43.75813958 -4.36809358 43.72864418 1.25 42 C5.79374937 38.69545501 7.4368893 34.79089169 8.53515625 29.34765625 C9.46779155 21.70433475 8.86623801 15.31106743 5.0625 8.5625 C2.67699736 5.59869369 1.11173009 4.15240167 -2.70703125 3.62890625 C-9.50531194 3.32084466 -9.50531194 3.32084466 -15.5625 5.9375 C-18.58310257 9.73261604 -19.84181537 13.33678295 -21 18 C-21.66 17.67 -22.32 17.34 -23 17 C-22.39009109 13.44219804 -21.4216319 10.3171411 -20 7 C-19.34 7 -18.68 7 -18 7 C-17.71125 6.38125 -17.4225 5.7625 -17.125 5.125 C-16 3 -16 3 -14 1 C-11.63490639 0.69940057 -9.25558119 0.50484988 -6.875 0.375 C-5.59367188 0.30023438 -4.31234375 0.22546875 -2.9921875 0.1484375 C-2.00476563 0.09945312 -1.01734375 0.05046875 0 0 Z " fill="#F5E1A8" transform="translate(660,116)"/>
<path d="M0 0 C0.66 0 1.32 0 2 0 C3.04424846 1.55450623 4.03514818 3.1450061 5 4.75 C9.34406705 11.13514638 13.89256598 12.77825769 21.171875 14.51953125 C28.04181981 15.73109128 34.16850147 13.57841955 40 10 C41.00568242 8.33675599 42.00664799 6.67063747 43 5 C44.32 5 45.64 5 47 5 C48.55193121 12.56566466 48.77476109 19.69799712 46 27 C44.375 28.9375 44.375 28.9375 43 30 C42.01 29.67 41.02 29.34 40 29 C40.639375 28.38125 41.27875 27.7625 41.9375 27.125 C45.52997727 23.42365978 45.12132639 20.28021629 45.0625 15.375 C45.05798828 14.66859375 45.05347656 13.9621875 45.04882812 13.234375 C45.03703875 11.48954725 45.01910324 9.744763 45 8 C44.13375 9.16595703 44.13375 9.16595703 43.25 10.35546875 C39.39012909 14.8921573 34.9054214 16.65638906 29.02734375 17.3515625 C20.05263389 17.60117516 13.05519475 15.67483056 6 10 C0 3.07798165 0 3.07798165 0 0 Z " fill="#F7E5AA" transform="translate(544,157)"/>
<path d="M0 0 C0 0.66 0 1.32 0 2 C-4.455 2.495 -4.455 2.495 -9 3 C-9 3.66 -9 4.32 -9 5 C-9.99 5.66 -10.98 6.32 -12 7 C-12 7.99 -12 8.98 -12 10 C-11.34 10 -10.68 10 -10 10 C-9.42894531 10.76699219 -8.85789062 11.53398437 -8.26953125 12.32421875 C-3.41287205 18.0502283 4.70719442 19.65046607 11.9375 20.41796875 C19.15987447 20.57086176 25.40371375 19.99198638 32 17 C33.051875 16.5875 34.10375 16.175 35.1875 15.75 C39.39409486 13.1325632 42.77316158 9.45367684 45 5 C45.66 5 46.32 5 47 5 C44.88200135 11.73908662 40.03400201 15.16964048 34.35546875 18.88671875 C28.31084252 21.74363165 22.2094356 22.36521163 15.625 22.3125 C14.88185547 22.30686035 14.13871094 22.3012207 13.37304688 22.29541016 C3.62626892 22.08084508 -4.55239814 19.52422033 -12 13 C-13.88512803 10.66343342 -14.82840699 8.82247407 -16 6 C-15.67 5.01 -15.34 4.02 -15 3 C-12.3828125 2.05078125 -12.3828125 2.05078125 -9.125 1.3125 C-8.05507813 1.06113281 -6.98515625 0.80976563 -5.8828125 0.55078125 C-3 0 -3 0 0 0 Z " fill="#F3E1AA" transform="translate(559,180)"/>
<path d="M0 0 C0.98484375 0.00902344 1.9696875 0.01804687 2.984375 0.02734375 C4.10585938 0.04474609 4.10585938 0.04474609 5.25 0.0625 C1.73982059 2.09332699 -1.72765014 2.78489875 -5.6875 3.5625 C-9.92736297 4.39686876 -13.7897749 5.3190992 -17.75 7.0625 C-17.811875 8.135 -17.87375 9.2075 -17.9375 10.3125 C-18.91421771 14.82042788 -20.14407158 15.42401579 -23.75 18.0625 C-28.38735429 26.40973773 -26.85099395 37.81594252 -26.75 47.0625 C-27.74 47.5575 -27.74 47.5575 -28.75 48.0625 C-31.32802413 36.93957329 -30.56155829 24.53738931 -25.34375 14.3046875 C-21.06587688 7.54484083 -15.45018771 2.96638563 -7.80859375 0.4140625 C-5.17923288 -0.03497446 -2.66587765 -0.03173664 0 0 Z " fill="#FAE8A8" transform="translate(649.75,103.9375)"/>
<path d="M0 0 C0.99 0.33 1.98 0.66 3 1 C3.433125 2.3303125 3.433125 2.3303125 3.875 3.6875 C5.78234268 9.30356457 8.7939642 12.58829461 13.9375 15.3125 C20.31267816 18.17361347 27.07856257 18.67416598 34 18 C37.40241824 16.6351132 37.40241824 16.6351132 40 15 C40.66 15 41.32 15 42 15 C42 14.34 42 13.68 42 13 C45 11 45 11 47.1875 11.375 C47.785625 11.58125 48.38375 11.7875 49 12 C48.34 12.66 47.68 13.32 47 14 C46.34 14 45.68 14 45 14 C43.63875 15.175625 43.63875 15.175625 42.25 16.375 C36.72346548 21.04214518 31.1556271 21.45727467 24.09765625 21.30859375 C16.49262769 20.55096795 10.61490231 17.56991672 5.47265625 11.94140625 C2.8798955 8.52336357 0 4.41144562 0 0 Z " fill="#F8E4AB" transform="translate(622,153)"/>
<path d="M0 0 C0.33 0 0.66 0 1 0 C1.02478762 5.58674804 1.04290152 11.1734638 1.05493164 16.76025391 C1.05994885 18.65934812 1.06676411 20.5584385 1.07543945 22.45751953 C1.08761963 25.19304352 1.09325454 27.92851626 1.09765625 30.6640625 C1.10281754 31.50804596 1.10797882 32.35202942 1.11329651 33.22158813 C1.11370954 37.59835842 0.88088964 41.69004167 0 46 C-0.66 45.67 -1.32 45.34 -2 45 C-2.40729228 42.67843403 -2.74438677 40.3431213 -3 38 C-2.01 37.505 -2.01 37.505 -1 37 C-1.00523682 36.09233887 -1.01047363 35.18467773 -1.01586914 34.24951172 C-1.03297684 30.86132158 -1.04548213 27.47317779 -1.05493164 24.08496094 C-1.05994045 22.62238843 -1.06674938 21.15982089 -1.07543945 19.69726562 C-1.08765698 17.58722709 -1.09326295 15.47725513 -1.09765625 13.3671875 C-1.10289307 12.09987793 -1.10812988 10.83256836 -1.11352539 9.52685547 C-1.00813747 6.252804 -0.62450226 3.21110848 0 0 Z " fill="#FCE1B1" transform="translate(607,138)"/>
<path d="M0 0 C4.50289035 1.25662056 7.5433334 2.83961911 11 6 C11.33 6.66 11.66 7.32 12 8 C12.99 5.69 13.98 3.38 15 1 C18.96 1 22.92 1 27 1 C26.67 1.66 26.34 2.32 26 3 C22.7 3 19.4 3 16 3 C15.45627049 6.05847848 15 8.88772805 15 12 C14.67 12.99 14.34 13.98 14 15 C13.34 14.67 12.68 14.34 12 14 C12 13.01 12 12.02 12 11 C11.34 11 10.68 11 10 11 C9.938125 10.21625 9.87625 9.4325 9.8125 8.625 C9.544375 7.75875 9.27625 6.8925 9 6 C6.6859613 4.72412505 6.6859613 4.72412505 4 4 C2.65949948 3.34786461 1.32338632 2.68620031 0 2 C0 1.34 0 0.68 0 0 Z " fill="#F6DD9C" transform="translate(656,105)"/>
<path d="M0 0 C1.32 0.33 2.64 0.66 4 1 C3.6390625 1.51304688 3.278125 2.02609375 2.90625 2.5546875 C-2.24008243 11.04613601 -1.46944376 19.42334724 -1 29 C-1.66 29 -2.32 29 -3 29 C-5.95078814 19.3623452 -4.43304848 8.86609697 0 0 Z " fill="#F7E1A5" transform="translate(561,121)"/>
<path d="M0 0 C0.12246094 0.57234375 0.24492188 1.1446875 0.37109375 1.734375 C1.02762868 4.09953191 1.93723512 6.07206797 3.0625 8.25 C3.42472656 8.95640625 3.78695312 9.6628125 4.16015625 10.390625 C4.57587891 11.18726562 4.57587891 11.18726562 5 12 C4.01 12.495 4.01 12.495 3 13 C2.5875 12.21625 2.175 11.4325 1.75 10.625 C-0.1361175 7.79582375 -0.90320151 7.17483439 -4 6 C-6.68416737 5.721844 -6.68416737 5.721844 -9.5 5.8125 C-10.4384375 5.81894531 -11.376875 5.82539062 -12.34375 5.83203125 C-14.70620585 5.98142184 -16.73716665 6.33289111 -19 7 C-17.37890625 5.00390625 -17.37890625 5.00390625 -15 3 C-12.08984375 2.71484375 -12.08984375 2.71484375 -8.9375 2.9375 C-4.69078874 3.39715816 -4.69078874 3.39715816 -1.12890625 1.50390625 C-0.75636719 1.00761719 -0.38382813 0.51132813 0 0 Z " fill="#F5E2AA" transform="translate(584,114)"/>
<path d="M0 0 C0.66 0.33 1.32 0.66 2 1 C3.17696417 6.54123504 3.13583837 11.98337525 2.9375 17.625 C2.93556641 18.45773438 2.93363281 19.29046875 2.93164062 20.1484375 C2.70992478 26.07343978 2.70992478 26.07343978 0.72070312 28.66967773 C-2.64719638 31.60191029 -5.5838438 32.68456027 -10 33 C-9.2575 32.46375 -8.515 31.9275 -7.75 31.375 C-3.7604254 27.9294583 -0.94166348 24.23454112 0 19 C0.09310777 16.85578272 0.12996239 14.70873209 0.125 12.5625 C0.12757813 11.45003906 0.13015625 10.33757812 0.1328125 9.19140625 C0.08441638 6.03838033 0.08441638 6.03838033 -0.5703125 3.15234375 C-0.71210937 2.44207031 -0.85390625 1.73179687 -1 1 C-0.67 0.67 -0.34 0.34 0 0 Z " fill="#F5E2A8" transform="translate(589,127)"/>
<path d="M0 0 C5.31361471 1.60623974 9.5879761 4.59738852 13 9 C12.8125 11.3125 12.8125 11.3125 12 13 C11.46375 12.071875 10.9275 11.14375 10.375 10.1875 C7.07011918 5.75200206 3.30472391 4.09433116 -2 3 C-4.24707241 2.7801777 -6.49771238 2.59516013 -8.75 2.4375 C-9.92046875 2.35371094 -11.0909375 2.26992187 -12.296875 2.18359375 C-13.18890625 2.12300781 -14.0809375 2.06242187 -15 2 C-10.30462031 -1.13025312 -5.49626102 -0.56497099 0 0 Z " fill="#FAE6B0" transform="translate(576,104)"/>
<path d="M0 0 C2.81256281 -0.02684312 5.62487241 -0.04676188 8.4375 -0.0625 C9.23994141 -0.07087891 10.04238281 -0.07925781 10.86914062 -0.08789062 C12.91295221 -0.0965143 14.95683902 -0.0522815 17 0 C18 1 18 1 18.0625 4.0625 C18.041875 5.031875 18.02125 6.00125 18 7 C17.67 7 17.34 7 17 7 C17 5.35 17 3.7 17 2 C12.05 2 7.1 2 2 2 C2 3.98 2 5.96 2 8 C1.01 8.495 1.01 8.495 0 9 C0 6.03 0 3.06 0 0 Z " fill="#F8E2AC" transform="translate(590,105)"/>
<path d="M0 0 C0.99 0 1.98 0 3 0 C1.88756302 6.00715969 -1.42663629 9.91315792 -6.02734375 13.703125 C-9.28089438 15.84209294 -12.15475033 16.42321255 -16 17 C-16.99 16.67 -17.98 16.34 -19 16 C-18.40832031 15.80664062 -17.81664062 15.61328125 -17.20703125 15.4140625 C-13.0853355 14.05585281 -9.0049476 12.67949415 -5 11 C-5 10.34 -5 9.68 -5 9 C-4.34 9 -3.68 9 -3 9 C-1.76078698 6.02588876 -0.69941596 3.14737182 0 0 Z " fill="#F7E6A8" transform="translate(683,183)"/>
<path d="M0 0 C0.79664063 0.52400391 0.79664063 0.52400391 1.609375 1.05859375 C2.31578125 1.51363281 3.0221875 1.96867188 3.75 2.4375 C4.44609375 2.88996094 5.1421875 3.34242188 5.859375 3.80859375 C11.85353316 7.14475842 18.47687344 6.27280518 25 5 C25 5.66 25 6.32 25 7 C18.89428427 8.86816675 10.84955535 9.31034247 4.78515625 7.24609375 C2.43196602 5.77894581 1.15917836 4.53515178 0.36328125 1.859375 C0.24339844 1.24578125 0.12351562 0.6321875 0 0 Z " fill="#F4E0AE" transform="translate(559,182)"/>
<path d="M0 0 C0.61875 0.86625 0.61875 0.86625 1.25 1.75 C4.93793285 6.49162795 7.14519408 8.45372097 13.25 9.25 C14.86648438 9.47429687 14.86648438 9.47429687 16.515625 9.703125 C17.74539063 9.85007813 17.74539063 9.85007813 19 10 C19 10.33 19 10.66 19 11 C14.71 11 10.42 11 6 11 C5.67 10.01 5.34 9.02 5 8 C3.03327085 6.8499169 3.03327085 6.8499169 1 6 C0 5 0 5 -0.0625 2.4375 C-0.041875 1.633125 -0.02125 0.82875 0 0 Z " fill="#F2DFA9" transform="translate(560,150)"/>
<path d="M0 0 C0.66 0 1.32 0 2 0 C0.1168869 5.99172349 -3.9775709 9.46569804 -9 13 C-9.66 12.67 -10.32 12.34 -11 12 C-10.45730469 11.55269531 -9.91460938 11.10539063 -9.35546875 10.64453125 C-5.4460764 7.34091861 -2.47755877 4.54219108 0 0 Z " fill="#F5E9AA" transform="translate(604,185)"/>
<path d="M0 0 C0.12246094 0.57234375 0.24492188 1.1446875 0.37109375 1.734375 C1.02762868 4.09953191 1.93723512 6.07206797 3.0625 8.25 C3.42472656 8.95640625 3.78695312 9.6628125 4.16015625 10.390625 C4.43730469 10.92171875 4.71445312 11.4528125 5 12 C4.01 12.495 4.01 12.495 3 13 C0 8.375 0 8.375 0 5 C-0.66 5 -1.32 5 -2 5 C-2.33 4.01 -2.66 3.02 -3 2 C-2.01 1.34 -1.02 0.68 0 0 Z " fill="#F8E19D" transform="translate(584,114)"/>
<path d="M0 0 C4.50802601 1.25805377 7.4912812 2.90407165 11 6 C10.67 6.99 10.34 7.98 10 9 C9.67 8.01 9.34 7.02 9 6 C6.6569191 4.87914688 6.6569191 4.87914688 4 4 C2.65949948 3.34786461 1.32338632 2.68620031 0 2 C0 1.34 0 0.68 0 0 Z " fill="#F8EAB6" transform="translate(656,105)"/>
<path d="M0 0 C0.99 0.33 1.98 0.66 3 1 C2.67 3.64 2.34 6.28 2 9 C1.34 8.67 0.68 8.34 0 8 C-0.6875 4.5 -0.6875 4.5 -1 1 C-0.67 0.67 -0.34 0.34 0 0 Z " fill="#F5DFA1" transform="translate(605,175)"/>
<path d="M0 0 C0.66 0.33 1.32 0.66 2 1 C1.67 5.29 1.34 9.58 1 14 C0.34 13.67 -0.32 13.34 -1 13 C-0.98839844 12.30132812 -0.97679687 11.60265625 -0.96484375 10.8828125 C-0.95582031 9.97273437 -0.94679688 9.06265625 -0.9375 8.125 C-0.92589844 7.22007812 -0.91429687 6.31515625 -0.90234375 5.3828125 C-0.83750743 2.9831415 -0.83750743 2.9831415 -2 1 C-1.34 0.67 -0.68 0.34 0 0 Z " fill="#FBDE98" transform="translate(636,132)"/>
<path d="M0 0 C2 1 2 1 2 1 Z " fill="#FFFFFF" transform="translate(484,110)"/>
<path d="" fill="#FFFFFF" transform="translate(0,0)"/>
</svg>
